<svg width="79" height="22" viewBox="0 0 79 22" fill="none" xmlns="http://www.w3.org/2000/svg">
<path d="M0 13.7788C0 19.9688 4.76156 21.427 13.3026 21.427C21.8436 21.427 26.6052 19.9688 26.6052 14.2252C26.6052 8.77912 21.5163 8.21369 13.3026 7.88633C8.77912 7.70777 8.03513 7.73753 8.03513 6.93402C8.03513 6.13051 8.77912 5.95195 12.4098 5.95195C16.1893 5.95195 17.9749 6.19002 17.9749 7.29113H25.7124C25.7124 1.96414 21.1294 0 13.005 0C4.79132 0 0.297597 1.96414 0.297597 6.54714C0.297597 11.398 3.89853 12.9455 13.3026 13.2431C18.1832 13.3919 18.8677 13.5109 18.8677 14.4037C18.8677 15.1775 18.1832 15.4751 13.6002 15.4751C8.68984 15.4751 7.73753 14.7906 7.73753 13.7788H0Z" fill="white"/>
<path d="M51.8433 8.27321C51.8433 3.63069 48.5995 0.297597 43.8677 0.297597H27.4999V21.1294H35.2374V16.2488H39.7906L42.6773 21.1294H51.8433L48.1531 15.1477C50.4446 13.8085 51.8433 11.3087 51.8433 8.27321ZM35.2374 6.84474H42.3797C43.1535 6.84474 44.1058 6.84474 44.1058 8.27321C44.1058 9.70167 43.1535 9.70167 42.3797 9.70167H35.2374V6.84474Z" fill="white"/>
<path d="M52.1377 13.7788C52.1377 19.9688 56.8992 21.427 65.4403 21.427C73.9813 21.427 78.7429 19.9688 78.7429 14.2252C78.7429 8.77912 73.6539 8.21369 65.4403 7.88633C60.9168 7.70777 60.1728 7.73753 60.1728 6.93402C60.1728 6.13051 60.9168 5.95195 64.5475 5.95195C68.327 5.95195 70.1125 6.19002 70.1125 7.29113H77.8501C77.8501 1.96414 73.2671 0 65.1427 0C56.929 0 52.4353 1.96414 52.4353 6.54714C52.4353 11.398 56.0362 12.9455 65.4403 13.2431C70.3209 13.3919 71.0053 13.5109 71.0053 14.4037C71.0053 15.1775 70.3209 15.4751 65.7379 15.4751C60.8275 15.4751 59.8752 14.7906 59.8752 13.7788H52.1377Z" fill="white"/>
</svg>
